<mxfile host="app.diagrams.net" agent="Mozilla/5.0 (Macintosh; Intel Mac OS X 10_15_7) AppleWebKit/537.36 (KHTML, like Gecko) Chrome/132.0.0.0 Safari/537.36" version="26.0.10">
  <diagram name="Page-1" id="LubBqCAFF0eY_6Dfj3jN">
    <mxGraphModel dx="852" dy="689" grid="1" gridSize="10" guides="1" tooltips="1" connect="1" arrows="1" fold="1" page="1" pageScale="1" pageWidth="850" pageHeight="1100" math="0" shadow="0">
      <root>
        <mxCell id="0" />
        <mxCell id="1" parent="0" />
        <mxCell id="bE1gFKcx4u8gwo7U3hTT-1" value="" style="whiteSpace=wrap;html=1;aspect=fixed;" parent="1" vertex="1">
          <mxGeometry x="30" y="20" width="860" height="860" as="geometry" />
        </mxCell>
        <mxCell id="hrwhk7hBxuppIEL_lkO9-1" value="Utilisateur" style="shape=umlActor;verticalLabelPosition=bottom;verticalAlign=top;html=1;outlineConnect=0;" parent="1" vertex="1">
          <mxGeometry x="80" y="400" width="30" height="60" as="geometry" />
        </mxCell>
        <mxCell id="bE1gFKcx4u8gwo7U3hTT-4" value="" style="rounded=0;whiteSpace=wrap;html=1;" parent="1" vertex="1">
          <mxGeometry x="160" y="70" width="550" height="700" as="geometry" />
        </mxCell>
        <mxCell id="bE1gFKcx4u8gwo7U3hTT-5" value="MongoDB" style="shape=umlActor;verticalLabelPosition=bottom;verticalAlign=top;html=1;outlineConnect=0;" parent="1" vertex="1">
          <mxGeometry x="750" y="400" width="30" height="60" as="geometry" />
        </mxCell>
        <mxCell id="bE1gFKcx4u8gwo7U3hTT-11" style="edgeStyle=orthogonalEdgeStyle;rounded=0;orthogonalLoop=1;jettySize=auto;html=1;dashed=1;" parent="1" source="bE1gFKcx4u8gwo7U3hTT-6" target="bE1gFKcx4u8gwo7U3hTT-10" edge="1">
          <mxGeometry relative="1" as="geometry">
            <Array as="points">
              <mxPoint x="390" y="150" />
            </Array>
          </mxGeometry>
        </mxCell>
        <mxCell id="bE1gFKcx4u8gwo7U3hTT-12" value="&lt;font style=&quot;font-size: 16px;&quot;&gt;extends&lt;/font&gt;" style="edgeLabel;html=1;align=center;verticalAlign=middle;resizable=0;points=[];" parent="bE1gFKcx4u8gwo7U3hTT-11" vertex="1" connectable="0">
          <mxGeometry x="-0.55" y="1" relative="1" as="geometry">
            <mxPoint as="offset" />
          </mxGeometry>
        </mxCell>
        <mxCell id="bE1gFKcx4u8gwo7U3hTT-6" value="CU 1: Accéder aux paramètres de compte" style="ellipse;whiteSpace=wrap;html=1;" parent="1" vertex="1">
          <mxGeometry x="280" y="220" width="180" height="80" as="geometry" />
        </mxCell>
        <mxCell id="bE1gFKcx4u8gwo7U3hTT-7" value="CU 2: Consulter le compte rendu de la dernière collecte" style="ellipse;whiteSpace=wrap;html=1;" parent="1" vertex="1">
          <mxGeometry x="280" y="330" width="170" height="80" as="geometry" />
        </mxCell>
        <mxCell id="bE1gFKcx4u8gwo7U3hTT-8" value="CU 3: Réaliser un prélèvement" style="ellipse;whiteSpace=wrap;html=1;" parent="1" vertex="1">
          <mxGeometry x="280" y="450" width="180" height="80" as="geometry" />
        </mxCell>
        <mxCell id="bE1gFKcx4u8gwo7U3hTT-9" value="CU 4: Consulter les nouvelles liées à FLOW" style="ellipse;whiteSpace=wrap;html=1;" parent="1" vertex="1">
          <mxGeometry x="280" y="570" width="180" height="80" as="geometry" />
        </mxCell>
        <mxCell id="bE1gFKcx4u8gwo7U3hTT-10" value="Créer un compte" style="ellipse;whiteSpace=wrap;html=1;" parent="1" vertex="1">
          <mxGeometry x="490" y="110" width="120" height="80" as="geometry" />
        </mxCell>
        <mxCell id="bE1gFKcx4u8gwo7U3hTT-16" style="edgeStyle=orthogonalEdgeStyle;rounded=0;orthogonalLoop=1;jettySize=auto;html=1;entryX=0;entryY=0.5;entryDx=0;entryDy=0;endArrow=none;startFill=0;" parent="1" source="hrwhk7hBxuppIEL_lkO9-1" target="bE1gFKcx4u8gwo7U3hTT-6" edge="1">
          <mxGeometry relative="1" as="geometry" />
        </mxCell>
        <mxCell id="bE1gFKcx4u8gwo7U3hTT-17" style="edgeStyle=orthogonalEdgeStyle;rounded=0;orthogonalLoop=1;jettySize=auto;html=1;endArrow=none;startFill=0;" parent="1" source="hrwhk7hBxuppIEL_lkO9-1" target="bE1gFKcx4u8gwo7U3hTT-7" edge="1">
          <mxGeometry relative="1" as="geometry" />
        </mxCell>
        <mxCell id="bE1gFKcx4u8gwo7U3hTT-18" style="edgeStyle=orthogonalEdgeStyle;rounded=0;orthogonalLoop=1;jettySize=auto;html=1;endArrow=none;startFill=0;" parent="1" source="hrwhk7hBxuppIEL_lkO9-1" target="bE1gFKcx4u8gwo7U3hTT-8" edge="1">
          <mxGeometry relative="1" as="geometry" />
        </mxCell>
        <mxCell id="bE1gFKcx4u8gwo7U3hTT-19" style="edgeStyle=orthogonalEdgeStyle;rounded=0;orthogonalLoop=1;jettySize=auto;html=1;entryX=0;entryY=0.5;entryDx=0;entryDy=0;endArrow=none;startFill=0;" parent="1" source="hrwhk7hBxuppIEL_lkO9-1" target="bE1gFKcx4u8gwo7U3hTT-9" edge="1">
          <mxGeometry relative="1" as="geometry" />
        </mxCell>
        <mxCell id="bE1gFKcx4u8gwo7U3hTT-20" style="edgeStyle=orthogonalEdgeStyle;rounded=0;orthogonalLoop=1;jettySize=auto;html=1;entryX=0.5;entryY=0.5;entryDx=0;entryDy=0;entryPerimeter=0;endArrow=none;startFill=0;" parent="1" source="bE1gFKcx4u8gwo7U3hTT-7" target="bE1gFKcx4u8gwo7U3hTT-5" edge="1">
          <mxGeometry relative="1" as="geometry">
            <Array as="points">
              <mxPoint x="610" y="370" />
              <mxPoint x="610" y="430" />
            </Array>
          </mxGeometry>
        </mxCell>
        <mxCell id="bE1gFKcx4u8gwo7U3hTT-21" style="edgeStyle=orthogonalEdgeStyle;rounded=0;orthogonalLoop=1;jettySize=auto;html=1;entryX=0.5;entryY=0.5;entryDx=0;entryDy=0;entryPerimeter=0;endArrow=none;startFill=0;" parent="1" source="bE1gFKcx4u8gwo7U3hTT-8" target="bE1gFKcx4u8gwo7U3hTT-5" edge="1">
          <mxGeometry relative="1" as="geometry">
            <Array as="points">
              <mxPoint x="610" y="490" />
              <mxPoint x="610" y="430" />
            </Array>
          </mxGeometry>
        </mxCell>
        <mxCell id="bE1gFKcx4u8gwo7U3hTT-22" style="edgeStyle=orthogonalEdgeStyle;rounded=0;orthogonalLoop=1;jettySize=auto;html=1;entryX=0.5;entryY=0.5;entryDx=0;entryDy=0;entryPerimeter=0;endArrow=none;startFill=0;" parent="1" source="bE1gFKcx4u8gwo7U3hTT-9" target="bE1gFKcx4u8gwo7U3hTT-5" edge="1">
          <mxGeometry relative="1" as="geometry">
            <Array as="points">
              <mxPoint x="610" y="630" />
              <mxPoint x="610" y="430" />
            </Array>
          </mxGeometry>
        </mxCell>
        <mxCell id="sZoyDgDa5dSyCbn7x_LU-1" value="CU 5: Consulter les partenaires" style="ellipse;whiteSpace=wrap;html=1;" parent="1" vertex="1">
          <mxGeometry x="280" y="680" width="180" height="80" as="geometry" />
        </mxCell>
        <mxCell id="sZoyDgDa5dSyCbn7x_LU-2" style="edgeStyle=orthogonalEdgeStyle;rounded=0;orthogonalLoop=1;jettySize=auto;html=1;entryX=0;entryY=0.5;entryDx=0;entryDy=0;endArrow=none;startFill=0;" parent="1" source="hrwhk7hBxuppIEL_lkO9-1" target="sZoyDgDa5dSyCbn7x_LU-1" edge="1">
          <mxGeometry relative="1" as="geometry">
            <mxPoint x="100" y="540" as="sourcePoint" />
            <mxPoint x="270" y="720" as="targetPoint" />
          </mxGeometry>
        </mxCell>
        <mxCell id="eYJLfpZsQHEAHCl9xBHd-6" style="edgeStyle=orthogonalEdgeStyle;rounded=0;orthogonalLoop=1;jettySize=auto;html=1;entryX=0.5;entryY=0.5;entryDx=0;entryDy=0;entryPerimeter=0;endArrow=none;startFill=0;exitX=1;exitY=0.5;exitDx=0;exitDy=0;" edge="1" parent="1" source="sZoyDgDa5dSyCbn7x_LU-1" target="bE1gFKcx4u8gwo7U3hTT-5">
          <mxGeometry relative="1" as="geometry">
            <Array as="points">
              <mxPoint x="610" y="720" />
              <mxPoint x="610" y="430" />
            </Array>
            <mxPoint x="458" y="640" as="sourcePoint" />
            <mxPoint x="775" y="440" as="targetPoint" />
          </mxGeometry>
        </mxCell>
      </root>
    </mxGraphModel>
  </diagram>
</mxfile>
